<?xml version="1.0" encoding="UTF-8"?>
<svg id="Camada_1" data-name="Camada 1" xmlns="http://www.w3.org/2000/svg" viewBox="0 0 3000 3000">
  <defs>
    <style>
      .cls-1 {
        fill: #d4af37;
      }

      .cls-2 {
        letter-spacing: -.07em;
      }

      .cls-3 {
        letter-spacing: 0em;
      }

      .cls-4 {
        letter-spacing: 0em;
      }

      .cls-5 {
        font-family: CormorantGaramond-MediumItalic, 'Cormorant Garamond';
        font-size: 300px;
        font-style: italic;
        font-weight: 500;
      }

      .cls-5, .cls-6 {
        fill: #1a2231;
      }

      .cls-6 {
        font-family: CormorantGaramond-SemiBold, 'Cormorant Garamond';
        font-size: 700px;
        font-weight: 600;
      }
    </style>
  </defs>
  <path class="cls-1" d="M490.73,1613.42c69.93-22.03,141.23-39.62,213.39-52.63,72.31-13.03,145.42-21.39,218.8-25.1,73.69-3.73,147.54-2.62,221.11,2.88,74.09,5.54,147.79,15.19,221.18,26.63,74.1,11.55,147.91,24.87,221.82,37.59,73.83,12.71,147.8,24.79,222.15,34.04,66.04,8.21,132.38,13.91,198.92,15.53,65.01,1.58,130.18-.59,194.82-7.87,63.76-7.18,127.05-19.13,188.52-37.67,60.63-18.29,119.55-42.96,174.36-74.77,13.47-7.82,26.67-16.07,39.61-24.73,10.64-7.12.64-24.45-10.09-17.27-52.24,34.95-108.88,62.9-168.06,83.98-59.91,21.34-122.1,35.96-184.96,45.33-63.57,9.48-127.97,13.39-192.22,13.49-64.72.1-129.42-3.77-193.77-10.57-73.73-7.8-147.05-19.06-220.16-31.31-73.66-12.35-147.15-25.74-220.85-37.85-73.8-12.13-147.86-23.01-222.32-30.29-73.67-7.21-147.66-10.56-221.68-8.89-73.67,1.67-147.2,8.1-220.08,18.95-72.23,10.76-143.78,26.05-214.08,45.82-17.33,4.87-34.57,10.03-51.74,15.44-12.23,3.85-7.01,23.17,5.32,19.29h0Z"/>
  <path class="cls-1" d="M490.73,1668.64c69.93-22.03,141.23-39.62,213.39-52.63,72.31-13.03,145.42-21.39,218.8-25.1,73.69-3.73,147.54-2.62,221.11,2.88,74.09,5.54,147.79,15.19,221.18,26.63,74.1,11.55,147.91,24.87,221.82,37.59,73.83,12.71,147.8,24.79,222.15,34.04,66.04,8.21,132.38,13.91,198.92,15.53,65.01,1.58,130.18-.59,194.82-7.87,63.76-7.18,127.05-19.13,188.52-37.67,60.63-18.29,119.55-42.96,174.36-74.77,13.47-7.82,26.67-16.07,39.61-24.73,10.64-7.12.64-24.45-10.09-17.27-52.24,34.95-108.88,62.9-168.06,83.98-59.91,21.34-122.1,35.96-184.96,45.33-63.57,9.48-127.97,13.39-192.22,13.49-64.72.1-129.42-3.77-193.77-10.57-73.73-7.8-147.05-19.06-220.16-31.31-73.66-12.35-147.15-25.74-220.85-37.85-73.8-12.13-147.86-23.01-222.32-30.29-73.67-7.21-147.66-10.56-221.68-8.89-73.67,1.67-147.2,8.1-220.08,18.95-72.23,10.76-143.78,26.05-214.08,45.82-17.33,4.87-34.57,10.03-51.74,15.44-12.23,3.85-7.01,23.17,5.32,19.29h0Z"/>
  <path class="cls-1" d="M490.73,1723.92c69.93-22.03,141.23-39.62,213.39-52.63,72.31-13.03,145.42-21.39,218.8-25.1,73.69-3.73,147.54-2.62,221.11,2.88,74.09,5.54,147.79,15.19,221.18,26.63,74.1,11.55,147.91,24.87,221.82,37.59,73.83,12.71,147.8,24.79,222.15,34.04,66.04,8.21,132.38,13.91,198.92,15.53,65.01,1.58,130.18-.59,194.82-7.87,63.76-7.18,127.05-19.13,188.52-37.67,60.63-18.29,119.55-42.96,174.36-74.77,13.47-7.82,26.67-16.07,39.61-24.73,10.64-7.12.64-24.45-10.09-17.27-52.24,34.95-108.88,62.9-168.06,83.98-59.91,21.34-122.1,35.96-184.96,45.33-63.57,9.48-127.97,13.39-192.22,13.49-64.72.1-129.42-3.77-193.77-10.57-73.73-7.8-147.05-19.06-220.16-31.31-73.66-12.35-147.15-25.74-220.85-37.85-73.8-12.13-147.86-23.01-222.32-30.29-73.67-7.21-147.66-10.56-221.68-8.89-73.67,1.67-147.2,8.1-220.08,18.95-72.23,10.76-143.78,26.05-214.08,45.82-17.33,4.87-34.57,10.03-51.74,15.44-12.23,3.85-7.01,23.17,5.32,19.29h0Z"/>
  <text class="cls-6" transform="translate(488.08 1440.83)"><tspan class="cls-2" x="0" y="0">V</tspan><tspan x="411.6" y="0">elluxe</tspan></text>
  <text class="cls-5" transform="translate(1217.13 1965.24)"><tspan class="cls-4" x="0" y="0">D</tspan><tspan class="cls-3" x="185.1" y="0">ecor</tspan></text>
</svg>